<svg width="200" height="200" viewBox="0 0 200 200" fill="none" xmlns="http://www.w3.org/2000/svg">
<rect width="200" height="200" rx="20" fill="#F5F5F7"/>
<g transform="translate(-61.02,-59.28) scale(1.58)">
<path d="M105.606 48.812H107.814C110.022 48.812 112.184 49.088 114.3 49.64C116.416 50.1 118.302 50.974 119.958 52.262C121.614 53.458 122.948 55.114 123.96 57.23C124.972 59.346 125.478 62.06 125.478 65.372V111.74C125.478 114.96 125.018 117.72 124.098 120.02C123.178 122.228 121.936 124.068 120.372 125.54C118.9 127.012 117.152 128.116 115.128 128.852C113.196 129.496 111.126 129.818 108.918 129.818C108.366 129.818 107.814 129.818 107.262 129.818C106.71 129.726 106.158 129.634 105.606 129.542V48.812ZM88.08 110.36C85.964 110.36 83.94 109.992 82.008 109.256C80.168 108.428 78.512 107.278 77.04 105.806C75.568 104.242 74.372 102.356 73.452 100.148C72.624 97.848 72.21 95.18 72.21 92.144V48.812H75.108C80.72 48.812 84.952 50.33 87.804 53.366C90.656 56.31 92.082 61.14 92.082 67.856V87.452C92.082 88.556 92.128 89.614 92.22 90.626C92.404 91.638 92.68 92.558 93.048 93.386C93.508 94.122 94.106 94.766 94.842 95.318C95.67 95.778 96.774 96.008 98.154 96.008C98.89 96.008 99.626 95.916 100.362 95.732C101.19 95.456 101.926 95.042 102.57 94.49C102.57 96.606 102.294 98.63 101.742 100.562C101.19 102.402 100.316 104.058 99.12 105.53C97.924 107.002 96.406 108.198 94.566 109.118C92.726 109.946 90.564 110.36 88.08 110.36ZM82.56 135.89C82.56 133.038 83.066 130.738 84.078 128.99C85.09 127.15 86.332 125.724 87.804 124.712C89.368 123.7 90.978 123.056 92.634 122.78C94.382 122.412 95.9 122.228 97.188 122.228C97.832 122.228 98.476 122.274 99.12 122.366C99.856 122.366 100.316 122.412 100.5 122.504V128.852C100.5 130.784 100.96 132.21 101.88 133.13C102.8 134.05 103.95 134.51 105.33 134.51C106.986 134.51 108.458 133.958 109.746 132.854C110.022 133.59 110.16 134.28 110.16 134.924C110.252 135.476 110.298 136.12 110.298 136.856C110.298 137.96 110.022 139.248 109.47 140.72C109.01 142.1 108.228 143.434 107.124 144.722C106.112 145.918 104.732 146.976 102.984 147.896C101.328 148.724 99.304 149.138 96.912 149.138C94.428 149.138 92.266 148.724 90.426 147.896C88.678 147.068 87.206 146.056 86.01 144.86C84.906 143.572 84.032 142.146 83.388 140.582C82.836 139.018 82.56 137.454 82.56 135.89Z" fill="#9E4560"/>
<path d="M96.6406 138.938C96.6406 138.625 96.75 138.391 96.9688 138.234C97.1875 138.047 97.4531 137.922 97.7656 137.859C98.1094 137.766 98.4375 137.719 98.75 137.719C99.0938 137.719 99.3906 137.719 99.6406 137.719C99.9531 137.719 100.312 137.734 100.719 137.766C101.156 137.766 101.562 137.828 101.938 137.953C102.312 138.047 102.625 138.219 102.875 138.469C103.156 138.688 103.297 139 103.297 139.406C103.297 139.562 103.281 139.906 103.25 140.438C103.25 140.938 103.234 141.484 103.203 142.078C103.203 142.672 103.188 143.219 103.156 143.719C103.156 144.188 103.141 144.438 103.109 144.469C102.859 144.812 102.531 145 102.125 145.031C101.75 145.094 101.391 145.125 101.047 145.125C100.078 145.125 99.3594 145.078 98.8906 144.984C98.4219 144.891 98.0781 144.703 97.8594 144.422C97.6406 144.141 97.5 143.75 97.4375 143.25C97.4062 142.75 97.3281 142.094 97.2031 141.281C97.1094 140.906 96.9844 140.531 96.8281 140.156C96.7031 139.781 96.6406 139.375 96.6406 138.938ZM124.016 148.969C124.016 149.406 123.922 149.812 123.734 150.188C123.547 150.719 123.359 151.156 123.172 151.5C123.016 151.844 122.812 152.109 122.562 152.297C122.312 152.484 122 152.609 121.625 152.672C121.281 152.766 120.828 152.812 120.266 152.812H107.516C107.297 152.812 107.016 152.797 106.672 152.766C106.359 152.766 106.031 152.719 105.688 152.625C105.375 152.562 105.109 152.438 104.891 152.25C104.641 152.094 104.516 151.844 104.516 151.5C104.516 150.75 104.781 150.078 105.312 149.484C105.844 148.922 106.484 148.562 107.234 148.406C107.859 148.312 108.484 148.25 109.109 148.219C109.734 148.219 110.359 148.188 110.984 148.125C112.766 148.031 114.547 147.922 116.328 147.797C118.109 147.703 119.922 147.656 121.766 147.656C121.984 147.656 122.219 147.656 122.469 147.656C122.75 147.688 123 147.734 123.219 147.797C123.469 147.891 123.656 148.031 123.781 148.219C123.938 148.406 124.016 148.656 124.016 148.969ZM124.953 138.938C124.953 138.625 125.062 138.391 125.281 138.234C125.5 138.047 125.766 137.922 126.078 137.859C126.422 137.766 126.75 137.719 127.062 137.719C127.406 137.719 127.703 137.719 127.953 137.719C128.266 137.719 128.625 137.734 129.031 137.766C129.469 137.766 129.875 137.828 130.25 137.953C130.625 138.047 130.938 138.219 131.188 138.469C131.469 138.688 131.609 139 131.609 139.406C131.609 139.562 131.594 139.906 131.562 140.438C131.562 140.938 131.547 141.484 131.516 142.078C131.516 142.672 131.5 143.219 131.469 143.719C131.469 144.188 131.453 144.438 131.422 144.469C131.172 144.812 130.844 145 130.438 145.031C130.062 145.094 129.703 145.125 129.359 145.125C128.391 145.125 127.672 145.078 127.203 144.984C126.734 144.891 126.391 144.703 126.172 144.422C125.953 144.141 125.812 143.75 125.75 143.25C125.719 142.75 125.641 142.094 125.516 141.281C125.422 140.906 125.297 140.531 125.141 140.156C125.016 139.781 124.953 139.375 124.953 138.938Z" fill="#9E4560"/>
</g>
</svg>