<svg width="200" height="200" viewBox="0 0 200 200" fill="none" xmlns="http://www.w3.org/2000/svg">
<rect width="200" height="200" rx="20" fill="#F5F5F7"/>
<path d="M77.1406 71.6406C77.1406 72.0156 77 72.3281 76.7188 72.5781C76.4688 72.8281 76.1562 73.0469 75.7812 73.2344C75.4062 73.3906 75.0156 73.5 74.6094 73.5625C74.2344 73.625 73.9219 73.6562 73.6719 73.6562C73.2969 73.6562 72.9375 73.625 72.5938 73.5625C72.25 73.4688 71.9062 73.375 71.5625 73.2812C71.2188 73.1875 70.8906 73.1094 70.5781 73.0469C70.2656 72.9531 69.9375 72.9062 69.5938 72.9062C69.125 72.9062 68.6562 72.9844 68.1875 73.1406C67.7188 73.2969 67.2969 73.5156 66.9219 73.7969C66.5469 74.0781 66.2344 74.4219 65.9844 74.8281C65.7656 75.2344 65.6562 75.6875 65.6562 76.1875C65.6562 76.9375 65.8125 77.6875 66.125 78.4375C66.4375 79.1562 66.8438 79.8906 67.3438 80.6406C67.875 81.3906 68.4688 82.1562 69.125 82.9375C69.8125 83.6875 70.5312 84.4531 71.2812 85.2344C72.1875 86.2344 73.0938 87.25 74 88.2812C74.9375 89.3125 75.7656 90.3906 76.4844 91.5156C77.2344 92.6406 77.8438 93.8281 78.3125 95.0781C78.7812 96.3281 79.0156 97.6406 79.0156 99.0156C79.0156 100.203 78.8125 101.266 78.4062 102.203C78.0312 103.141 77.4844 103.938 76.7656 104.594C76.0781 105.25 75.2344 105.75 74.2344 106.094C73.2656 106.469 72.2031 106.656 71.0469 106.656C70.7344 106.656 70.25 106.594 69.5938 106.469C68.9688 106.344 68.25 106.172 67.4375 105.953C66.625 105.703 65.7812 105.438 64.9062 105.156C64.0625 104.875 63.2812 104.578 62.5625 104.266C61.875 103.922 61.2969 103.594 60.8281 103.281C60.3906 102.938 60.1719 102.625 60.1719 102.344C60.1719 101.969 60.3438 101.594 60.6875 101.219C61.0312 100.812 61.4375 100.453 61.9062 100.141C62.375 99.7969 62.8594 99.5156 63.3594 99.2969C63.8906 99.0781 64.3281 98.9688 64.6719 98.9688C65.1406 98.9688 65.625 99.0781 66.125 99.2969C66.6562 99.5156 67.1875 99.7656 67.7188 100.047C68.3125 100.359 68.9062 100.641 69.5 100.891C70.125 101.141 70.7656 101.266 71.4219 101.266C71.9219 101.266 72.2031 101.094 72.2656 100.75C72.3594 100.406 72.4062 100.016 72.4062 99.5781C72.4062 98.4844 72.2188 97.4531 71.8438 96.4844C71.4688 95.4844 70.9844 94.5156 70.3906 93.5781C69.7969 92.6406 69.1094 91.7344 68.3281 90.8594C67.5469 89.9531 66.7656 89.0625 65.9844 88.1875C65.1719 87.3125 64.375 86.4375 63.5938 85.5625C62.8438 84.6875 62.1719 83.7969 61.5781 82.8906C60.9844 81.9531 60.5 81 60.125 80.0312C59.7812 79.0625 59.6094 78.0312 59.6094 76.9375C59.6094 75.5938 59.9062 74.3906 60.5 73.3281C61.0938 72.2344 61.8594 71.2969 62.7969 70.5156C63.7656 69.7344 64.8438 69.1406 66.0312 68.7344C67.25 68.2969 68.4688 68.0781 69.6875 68.0781C70.0938 68.0781 70.7188 68.1719 71.5625 68.3594C72.4062 68.5156 73.2344 68.75 74.0469 69.0625C74.8594 69.375 75.5781 69.75 76.2031 70.1875C76.8281 70.625 77.1406 71.1094 77.1406 71.6406ZM80.7031 100.938C80.7031 100.625 80.8125 100.391 81.0312 100.234C81.25 100.047 81.5156 99.9219 81.8281 99.8594C82.1719 99.7656 82.5 99.7188 82.8125 99.7188C83.1562 99.7188 83.4531 99.7188 83.7031 99.7188C84.0156 99.7188 84.375 99.7344 84.7812 99.7656C85.2188 99.7656 85.625 99.8281 86 99.9531C86.375 100.047 86.6875 100.219 86.9375 100.469C87.2188 100.688 87.3594 101 87.3594 101.406C87.3594 101.562 87.3438 101.906 87.3125 102.438C87.3125 102.938 87.2969 103.484 87.2656 104.078C87.2656 104.672 87.25 105.219 87.2188 105.719C87.2188 106.188 87.2031 106.438 87.1719 106.469C86.9219 106.812 86.5938 107 86.1875 107.031C85.8125 107.094 85.4531 107.125 85.1094 107.125C84.1406 107.125 83.4219 107.078 82.9531 106.984C82.4844 106.891 82.1406 106.703 81.9219 106.422C81.7031 106.141 81.5625 105.75 81.5 105.25C81.4688 104.75 81.3906 104.094 81.2656 103.281C81.1719 102.906 81.0469 102.531 80.8906 102.156C80.7656 101.781 80.7031 101.375 80.7031 100.938ZM108.078 110.969C108.078 111.406 107.984 111.812 107.797 112.188C107.609 112.719 107.422 113.156 107.234 113.5C107.078 113.844 106.875 114.109 106.625 114.297C106.375 114.484 106.062 114.609 105.688 114.672C105.344 114.766 104.891 114.812 104.328 114.812H91.5781C91.3594 114.812 91.0781 114.797 90.7344 114.766C90.4219 114.766 90.0938 114.719 89.75 114.625C89.4375 114.562 89.1719 114.438 88.9531 114.25C88.7031 114.094 88.5781 113.844 88.5781 113.5C88.5781 112.75 88.8438 112.078 89.375 111.484C89.9062 110.922 90.5469 110.562 91.2969 110.406C91.9219 110.312 92.5469 110.25 93.1719 110.219C93.7969 110.219 94.4219 110.188 95.0469 110.125C96.8281 110.031 98.6094 109.922 100.391 109.797C102.172 109.703 103.984 109.656 105.828 109.656C106.047 109.656 106.281 109.656 106.531 109.656C106.812 109.688 107.062 109.734 107.281 109.797C107.531 109.891 107.719 110.031 107.844 110.219C108 110.406 108.078 110.656 108.078 110.969ZM109.016 100.938C109.016 100.625 109.125 100.391 109.344 100.234C109.562 100.047 109.828 99.9219 110.141 99.8594C110.484 99.7656 110.812 99.7188 111.125 99.7188C111.469 99.7188 111.766 99.7188 112.016 99.7188C112.328 99.7188 112.688 99.7344 113.094 99.7656C113.531 99.7656 113.938 99.8281 114.312 99.9531C114.688 100.047 115 100.219 115.25 100.469C115.531 100.688 115.672 101 115.672 101.406C115.672 101.562 115.656 101.906 115.625 102.438C115.625 102.938 115.609 103.484 115.578 104.078C115.578 104.672 115.562 105.219 115.531 105.719C115.531 106.188 115.516 106.438 115.484 106.469C115.234 106.812 114.906 107 114.5 107.031C114.125 107.094 113.766 107.125 113.422 107.125C112.453 107.125 111.734 107.078 111.266 106.984C110.797 106.891 110.453 106.703 110.234 106.422C110.016 106.141 109.875 105.75 109.812 105.25C109.781 104.75 109.703 104.094 109.578 103.281C109.484 102.906 109.359 102.531 109.203 102.156C109.078 101.781 109.016 101.375 109.016 100.938ZM138.125 109.188C138.125 110.469 138.078 111.812 137.984 113.219C137.891 114.625 137.734 116.031 137.516 117.438C137.297 118.875 137 120.281 136.625 121.656C136.25 123.031 135.781 124.312 135.219 125.5C134.281 127.25 133.094 128.781 131.656 130.094C130.25 131.438 128.703 132.562 127.016 133.469C125.328 134.375 123.531 135.062 121.625 135.531C119.719 136 117.797 136.234 115.859 136.234C115.578 136.234 115.25 136.219 114.875 136.188C114.469 136.156 114.078 136.078 113.703 135.953C113.328 135.859 113.016 135.688 112.766 135.438C112.516 135.188 112.391 134.844 112.391 134.406C112.391 134.219 112.438 134.031 112.531 133.844C112.531 133.781 112.547 133.719 112.578 133.656C112.578 133.625 112.578 133.594 112.578 133.562C112.797 132.938 113.047 132.438 113.328 132.062C113.609 131.688 113.938 131.391 114.312 131.172C114.656 130.984 115.078 130.844 115.578 130.75C116.047 130.688 116.594 130.625 117.219 130.562C119.219 130.469 121.109 130 122.891 129.156V129.203C124.922 128.203 126.516 126.953 127.672 125.453C128.859 123.984 129.75 122.344 130.344 120.531C130.969 118.75 131.359 116.859 131.516 114.859C131.672 112.859 131.75 110.844 131.75 108.812C131.75 108.344 131.75 108 131.75 107.781C131.75 107.562 131.75 107.359 131.75 107.172C131.75 107.016 131.75 106.828 131.75 106.609C131.75 106.391 131.734 106.047 131.703 105.578C130.609 106.422 129.469 106.844 128.281 106.844C126.906 106.844 125.734 106.469 124.766 105.719C123.828 104.938 123.031 103.938 122.375 102.719C121.75 101.469 121.25 100.062 120.875 98.5C120.531 96.9062 120.266 95.2969 120.078 93.6719C119.922 92.0156 119.812 90.4062 119.75 88.8438C119.719 87.2812 119.703 85.8906 119.703 84.6719V82.7031C119.703 81.0469 119.703 79.4219 119.703 77.8281C119.734 76.2344 119.797 74.6406 119.891 73.0469V72.3438C119.891 71.9688 119.891 71.5938 119.891 71.2188C119.891 70.8438 119.922 70.4844 119.984 70.1406C120.109 69.6406 120.281 69.2812 120.5 69.0625C120.75 68.8438 121.141 68.7344 121.672 68.7344C121.922 68.7344 122.156 68.75 122.375 68.7812C122.625 68.8125 122.875 68.8594 123.125 68.9219C123.719 69.1719 124.188 69.4375 124.531 69.7188C124.875 69.9688 125.125 70.2812 125.281 70.6562C125.469 71 125.578 71.4062 125.609 71.875C125.672 72.3438 125.703 72.8906 125.703 73.5156V79.7969C125.703 80.5469 125.703 81.4844 125.703 82.6094C125.734 83.7031 125.781 84.9062 125.844 86.2188C125.906 87.5312 125.984 88.8906 126.078 90.2969C126.172 91.7031 126.312 93.0625 126.5 94.375C126.688 95.6875 126.906 96.8906 127.156 97.9844C127.406 99.0781 127.719 99.9844 128.094 100.703C128.656 99.4844 129.141 98.0625 129.547 96.4375C129.953 94.7812 130.281 93.0156 130.531 91.1406C130.812 89.2344 131.016 87.2812 131.141 85.2812C131.297 83.2812 131.406 81.3281 131.469 79.4219C131.562 77.5156 131.609 75.7188 131.609 74.0312C131.641 72.3125 131.656 70.8125 131.656 69.5312C131.656 69.2188 131.656 68.8906 131.656 68.5469C131.688 68.1719 131.766 67.8438 131.891 67.5625C132.016 67.25 132.188 67 132.406 66.8125C132.656 66.625 133.016 66.5312 133.484 66.5312C133.703 66.5312 133.938 66.5625 134.188 66.625C134.469 66.6875 134.703 66.75 134.891 66.8125C134.953 66.8125 135.016 66.8281 135.078 66.8594C135.172 66.8594 135.25 66.8594 135.312 66.8594C135.75 67.0156 136.172 67.1719 136.578 67.3281C136.984 67.4844 137.328 67.6875 137.609 67.9375C137.922 68.1562 138.156 68.4531 138.312 68.8281C138.5 69.2031 138.594 69.6875 138.594 70.2812C138.594 71 138.578 71.8281 138.547 72.7656C138.547 73.6719 138.516 74.625 138.453 75.625C138.422 76.625 138.375 77.6094 138.312 78.5781C138.25 79.5156 138.188 80.3594 138.125 81.1094L137.938 82.75C137.875 83.1875 137.828 83.625 137.797 84.0625C137.766 84.5 137.75 84.9062 137.75 85.2812C137.75 87.2812 137.766 89.2812 137.797 91.2812C137.828 93.25 137.875 95.2344 137.938 97.2344C138 99.2344 138.047 101.234 138.078 103.234C138.109 105.203 138.125 107.188 138.125 109.188Z" fill="#9E4560"/>
</svg>
