<svg preserveAspectRatio="none" width="100%" height="100%" overflow="visible" style="display: block;" viewBox="0 0 20 20" fill="none" xmlns="http://www.w3.org/2000/svg">
<g id="icon">
<path id="Vector" fill-rule="evenodd" clip-rule="evenodd" d="M14.4118 0.554077C14.8159 -0.184692 15.8774 -0.184692 16.2815 0.554077L17.1307 2.10664C17.3068 2.42856 17.5714 2.69324 17.8934 2.86928L19.4459 3.71846C20.1847 4.12259 20.1847 5.18407 19.4459 5.58819L17.8934 6.43737C17.5714 6.61342 17.3068 6.8781 17.1307 7.20001L16.2815 8.75258C15.8774 9.49135 14.8159 9.49135 14.4118 8.75258L13.5626 7.20001C13.3866 6.8781 13.1219 6.61342 12.8 6.43737L11.2474 5.58819C10.5086 5.18407 10.5086 4.12259 11.2474 3.71846L12.8 2.86928C13.1219 2.69324 13.3866 2.42856 13.5626 2.10664L14.4118 0.554077ZM11.8924 1.90799L10.634 2.59646C9.00764 3.48571 9.00764 5.82095 10.634 6.7102L12.1865 7.55938C12.2938 7.61805 12.3819 7.70622 12.4406 7.81345L13.2898 9.36602C13.7715 10.2472 14.6778 10.6509 15.5491 10.5767C15.1315 12.2834 14.1558 13.8017 12.7769 14.8908C12.7054 15.1458 12.6306 15.3999 12.5527 15.653C12.3524 16.307 11.796 16.8078 11.0811 16.8824C10.4617 16.9468 9.43777 17.0159 7.88648 17.0159C6.33519 17.0159 5.31122 16.9468 4.69181 16.8824C3.97692 16.8078 3.42103 16.307 3.22024 15.653C3.14234 15.3999 3.06759 15.1458 2.99601 14.8908C1.17231 13.4474 0 11.2119 0 8.70313C0 4.34767 3.53101 0.816674 7.88648 0.816674C9.34867 0.816674 10.7184 1.21483 11.8924 1.90799ZM4.24037 17.8855C4.3512 17.9111 4.4646 17.93 4.58055 17.9422C5.24216 18.0113 6.30364 18.0816 7.88605 18.0816C9.46846 18.0816 10.5295 18.0113 11.1916 17.9422C11.3432 17.9264 11.4933 17.8983 11.6404 17.8582L11.6268 17.9861C11.5266 18.9091 10.865 19.7454 9.85213 19.8789C9.20004 19.9613 8.54333 20.0017 7.88605 19.9999C7.04625 19.9999 6.39444 19.9394 5.91571 19.8669C5.03456 19.7335 4.45437 19.0335 4.3073 18.2483C4.28598 18.1349 4.26367 18.0137 4.24037 17.8855Z" fill="var(--fill-0, #9E4560)"/>
</g>
</svg>
