<svg preserveAspectRatio="none" width="100%" height="100%" overflow="visible" style="display: block;" viewBox="0 0 20 20" fill="none" xmlns="http://www.w3.org/2000/svg">
<g id="icon">
<path id="Vector" fill-rule="evenodd" clip-rule="evenodd" d="M10 0C15.523 0 20 4.477 20 10C20 15.523 15.523 20 10 20C4.477 20 0 15.523 0 10C0 4.477 4.477 0 10 0ZM11.984 12.25C11.454 12.718 10.761 13 10 13C9.2694 12.9999 8.56395 12.7332 8.016 12.25C7.81709 12.0744 7.55658 11.9851 7.29177 12.0016C7.02697 12.0181 6.77957 12.1391 6.604 12.338C6.42843 12.5369 6.33906 12.7974 6.35557 13.0622C6.37207 13.327 6.49309 13.5744 6.692 13.75C7.60559 14.5557 8.78188 15.0002 10 15C11.2185 15.002 12.3954 14.5573 13.308 13.75C13.5069 13.5744 13.6279 13.327 13.6444 13.0622C13.6609 12.7974 13.5716 12.5369 13.396 12.338C13.2204 12.1391 12.973 12.0181 12.7082 12.0016C12.4434 11.9851 12.1829 12.0744 11.984 12.25ZM6.5 6C5.413 6 4.542 6.68 4.106 7.552C3.99138 7.78014 3.96836 8.04348 4.04167 8.28804C4.11497 8.53261 4.27904 8.73987 4.50025 8.86735C4.72146 8.99483 4.98305 9.03288 5.2314 8.97369C5.47976 8.9145 5.69607 8.76255 5.836 8.549L5.894 8.448C6.056 8.124 6.304 8 6.5 8C6.67 8 6.882 8.095 7.041 8.336L7.106 8.448C7.22604 8.68299 7.4341 8.86101 7.68483 8.94326C7.93556 9.02551 8.20863 9.00532 8.44454 8.8871C8.68045 8.76888 8.86008 8.56221 8.94427 8.31213C9.02846 8.06204 9.01039 7.78882 8.894 7.552C8.457 6.68 7.587 6 6.5 6ZM13.5 6C12.413 6 11.543 6.68 11.106 7.552C10.9914 7.78014 10.9684 8.04348 11.0417 8.28804C11.115 8.53261 11.279 8.73987 11.5002 8.86735C11.7215 8.99483 11.983 9.03288 12.2314 8.97369C12.4798 8.9145 12.6961 8.76255 12.836 8.549L12.894 8.448C13.056 8.124 13.304 8 13.5 8C13.67 8 13.882 8.095 14.041 8.336L14.106 8.448C14.1642 8.56644 14.2453 8.67219 14.3446 8.75915C14.4438 8.84611 14.5593 8.91256 14.6844 8.95466C14.8095 8.99677 14.9417 9.0137 15.0733 9.00448C15.205 8.99526 15.3335 8.96008 15.4515 8.90095C15.5695 8.84183 15.6746 8.75993 15.7608 8.65999C15.847 8.56004 15.9125 8.44403 15.9536 8.31863C15.9948 8.19323 16.0107 8.06093 16.0005 7.92935C15.9902 7.79777 15.954 7.66953 15.894 7.552C15.458 6.68 14.587 6 13.5 6Z" fill="var(--fill-0, #3D6E50)"/>
</g>
</svg>
