<svg preserveAspectRatio="none" width="100%" height="100%" overflow="visible" style="display: block;" viewBox="0 0 20 20" fill="none" xmlns="http://www.w3.org/2000/svg">
<g id="octicon:accessibility-inset-16" clip-path="url(#clip0_0_6)">
<path id="Vector" d="M10 0C12.6522 0 15.1957 1.05357 17.0711 2.92893C18.9464 4.8043 20 7.34784 20 10C20 12.6522 18.9464 15.1957 17.0711 17.0711C15.1957 18.9464 12.6522 20 10 20C7.34784 20 4.8043 18.9464 2.92893 17.0711C1.05357 15.1957 0 12.6522 0 10C0 7.34784 1.05357 4.8043 2.92893 2.92893C4.8043 1.05357 7.34784 0 10 0ZM4.6875 7.5C4.43886 7.5 4.2004 7.59877 4.02459 7.77459C3.84877 7.9504 3.75 8.18886 3.75 8.4375C3.75 8.68614 3.84877 8.9246 4.02459 9.10041C4.2004 9.27623 4.43886 9.375 4.6875 9.375H7.69875C7.68593 9.43749 7.6755 9.50046 7.6675 9.56375L7.28375 12.6988L6.88 16.4625C6.85348 16.7098 6.92629 16.9575 7.08241 17.1512C7.23854 17.3448 7.46519 17.4685 7.7125 17.495C7.95981 17.5215 8.20753 17.4487 8.40117 17.2926C8.5948 17.1365 8.71848 16.9098 8.745 16.6625L9.0575 13.75H10.9438L11.2563 16.6625C11.2662 16.8317 11.3219 16.995 11.4174 17.1349C11.5129 17.2749 11.6447 17.3862 11.7986 17.4571C11.9526 17.528 12.1229 17.5557 12.2913 17.5372C12.4598 17.5188 12.62 17.455 12.755 17.3525C12.8903 17.2508 12.9956 17.1144 13.0597 16.9577C13.1237 16.801 13.1441 16.6299 13.1187 16.4625L12.7188 12.7125L12.3325 9.56375C12.3245 9.50046 12.3141 9.43749 12.3012 9.375H15.3125C15.5611 9.375 15.7996 9.27623 15.9754 9.10041C16.1512 8.9246 16.25 8.68614 16.25 8.4375C16.25 8.18886 16.1512 7.9504 15.9754 7.77459C15.7996 7.59877 15.5611 7.5 15.3125 7.5H4.6875ZM10 7.5C10.3329 7.50753 10.664 7.44847 10.9738 7.32629C11.2836 7.2041 11.5658 7.02126 11.804 6.7885C12.0421 6.55573 12.2314 6.27773 12.3606 5.97082C12.4898 5.66391 12.5564 5.33427 12.5565 5.00126C12.5566 4.66826 12.4902 4.33859 12.3611 4.03161C12.232 3.72464 12.0429 3.44654 11.8049 3.21366C11.5668 2.98077 11.2847 2.79779 10.9749 2.67545C10.6652 2.55311 10.3342 2.49389 10.0013 2.50125C9.34805 2.51569 8.72646 2.78528 8.26954 3.2523C7.81262 3.71932 7.55668 4.34665 7.55652 5.00001C7.55636 5.65338 7.81198 6.28084 8.26866 6.74809C8.72535 7.21533 9.34681 7.48523 10 7.5Z" fill="var(--fill-0, #3A4A7A)"/>
</g>
<defs>
<clipPath id="clip0_0_6">
<rect width="20" height="20" fill="white"/>
</clipPath>
</defs>
</svg>
