<svg preserveAspectRatio="none" width="100%" height="100%" overflow="visible" style="display: block;" viewBox="0 0 20 20" fill="none" xmlns="http://www.w3.org/2000/svg">
<g id="icon">
<path id="Vector" d="M16.6667 6.66667L11.6667 1.66667H5C4.55797 1.66667 4.13405 1.84226 3.82149 2.15482C3.50893 2.46738 3.33333 2.89131 3.33333 3.33333V16.6667C3.33333 17.1087 3.50893 17.5326 3.82149 17.8452C4.13405 18.1577 4.55797 18.3333 5 18.3333H15C15.442 18.3333 15.8659 18.1577 16.1785 17.8452C16.4911 17.5326 16.6667 17.1087 16.6667 16.6667V6.66667ZM7.5 15.8333H5.83333V8.33333H7.5V15.8333ZM10.8333 15.8333H9.16667V10.8333H10.8333V15.8333ZM14.1667 15.8333H12.5V13.3333H14.1667V15.8333ZM11.6667 7.5H10.8333V3.33333L15 7.5H11.6667Z" fill="var(--fill-0, #3A4A7A)"/>
</g>
</svg>
