<svg preserveAspectRatio="none" width="100%" height="100%" overflow="visible" style="display: block;" viewBox="0 0 20 20" fill="none" xmlns="http://www.w3.org/2000/svg">
<g id="icon" clip-path="url(#clip0_0_4)">
<path id="Vector" fill-rule="evenodd" clip-rule="evenodd" d="M4.16667 0.833333C3.28261 0.833333 2.43477 1.18452 1.80964 1.80964C1.18452 2.43477 0.833333 3.28261 0.833333 4.16667V15.8333C0.833333 16.7174 1.18452 17.5652 1.80964 18.1904C2.43477 18.8155 3.28261 19.1667 4.16667 19.1667H15.8333C16.7174 19.1667 17.5652 18.8155 18.1904 18.1904C18.8155 17.5652 19.1667 16.7174 19.1667 15.8333V4.16667C19.1667 3.28261 18.8155 2.43477 18.1904 1.80964C17.5652 1.18452 16.7174 0.833333 15.8333 0.833333H4.16667ZM15.7442 3.8725C15.9521 3.99004 16.1348 4.14743 16.2818 4.33565C16.4289 4.52388 16.5373 4.73925 16.601 4.96944C16.6647 5.19964 16.6824 5.44013 16.6531 5.67717C16.6237 5.9142 16.5479 6.14312 16.43 6.35083L12.23 13.7625C12.038 13.1381 11.6215 12.607 11.0608 12.2717L9.44417 11.3025L13.2667 4.55833C13.3842 4.35052 13.5416 4.16792 13.7297 4.02096C13.9179 3.874 14.1332 3.76558 14.3633 3.70188C14.5934 3.63818 14.8337 3.62047 15.0707 3.64974C15.3076 3.67902 15.5365 3.75471 15.7442 3.8725ZM3.56917 12.7142C3.45059 12.5028 3.3751 12.27 3.34706 12.0293C3.31903 11.7885 3.339 11.5446 3.40583 11.3117C3.54064 10.8506 3.85208 10.4615 4.27237 10.229C4.69266 9.99642 5.18779 9.93929 5.65 10.07C5.80056 10.1117 5.94611 10.1747 6.08667 10.2592L6.11167 10.2742C6.51654 10.5255 6.80655 10.9258 6.91929 11.3888C7.03203 11.8518 6.95849 12.3406 6.71449 12.75C6.4705 13.1593 6.07555 13.4565 5.61464 13.5776C5.15373 13.6987 4.6637 13.634 4.25 13.3975L4.21667 13.3775C3.94747 13.2153 3.7245 12.9866 3.56917 12.7133V12.7142ZM11.2783 15.4417L11.29 15.4217C11.5169 15.0095 11.5751 14.5255 11.4523 14.0713C11.3295 13.6171 11.0353 13.2283 10.6317 12.9867L7.7425 11.2533C7.88661 11.9136 7.77325 12.604 7.42556 13.1836C7.07787 13.7631 6.52208 14.188 5.87167 14.3717L8.7525 16.0992L8.8 16.1275L8.80833 16.1317C9.22771 16.3662 9.72283 16.4252 10.1856 16.2959C10.6484 16.1667 11.0412 15.8596 11.2783 15.4417Z" fill="var(--fill-0, #5A4A8A)"/>
</g>
<defs>
<clipPath id="clip0_0_4">
<rect width="20" height="20" fill="white"/>
</clipPath>
</defs>
</svg>
