<svg preserveAspectRatio="none" width="100%" height="100%" overflow="visible" style="display: block;" viewBox="0 0 20 20" fill="none" xmlns="http://www.w3.org/2000/svg">
<g id="icon">
<path id="Vector" d="M13.7454 2.99154C12.1331 2.99154 10.7554 4.14077 9.99846 4.93308C9.24154 4.14077 7.86692 2.99154 6.25538 2.99154C3.47769 2.99154 1.53846 4.92769 1.53846 7.69923C1.53846 10.7531 3.94692 12.7269 6.27692 14.6362C7.37692 15.5385 8.51538 16.4708 9.38846 17.5046C9.53538 17.6777 9.75077 17.7777 9.97692 17.7777H10.0215C10.2485 17.7777 10.4631 17.6769 10.6092 17.5046C11.4838 16.4708 12.6215 15.5377 13.7223 14.6362C16.0515 12.7277 18.4615 10.7538 18.4615 7.69923C18.4615 4.92769 16.5223 2.99154 13.7454 2.99154Z" fill="var(--fill-0, #9E4560)"/>
</g>
</svg>
