<svg preserveAspectRatio="none" width="100%" height="100%" overflow="visible" style="display: block;" viewBox="0 0 20 20" fill="none" xmlns="http://www.w3.org/2000/svg">
<g id="icon">
<path id="Vector" d="M13.3333 1.66667L17.5 5.83333V17.5067C17.4998 17.726 17.4125 17.9363 17.2573 18.0913C17.1022 18.2463 16.8918 18.3333 16.6725 18.3333H3.3275C3.10865 18.3318 2.89918 18.2442 2.74435 18.0896C2.58951 17.9349 2.50175 17.7255 2.5 17.5067V2.49333C2.5 2.03667 2.87083 1.66667 3.3275 1.66667H13.3333ZM9.16667 12.5V14.1667H10.8333V12.5H9.16667ZM10.8333 11.1292C11.5031 10.9273 12.078 10.4916 12.4535 9.90145C12.8289 9.31128 12.9799 8.60588 12.8789 7.91372C12.778 7.22157 12.4318 6.5887 11.9033 6.13038C11.3749 5.67206 10.6995 5.41878 10 5.41667C9.32567 5.41646 8.6721 5.64991 8.15051 6.0773C7.62891 6.5047 7.27153 7.09962 7.13917 7.76083L8.77417 8.08833C8.82057 7.85619 8.93193 7.642 9.09531 7.47068C9.25868 7.29936 9.46734 7.17795 9.69702 7.12059C9.9267 7.06322 10.1679 7.07226 10.3927 7.14664C10.6174 7.22102 10.8164 7.3577 10.9665 7.54076C11.1166 7.72382 11.2117 7.94574 11.2406 8.1807C11.2695 8.41566 11.2311 8.654 11.1298 8.86799C11.0286 9.08197 10.8686 9.2628 10.6686 9.38944C10.4686 9.51608 10.2367 9.58332 10 9.58333C9.77899 9.58333 9.56702 9.67113 9.41074 9.82741C9.25446 9.98369 9.16667 10.1957 9.16667 10.4167V11.6667H10.8333V11.1292Z" fill="var(--fill-0, #3A4A7A)"/>
</g>
</svg>
