<svg preserveAspectRatio="none" width="100%" height="100%" overflow="visible" style="display: block;" viewBox="0 0 20 20" fill="none" xmlns="http://www.w3.org/2000/svg">
<g id="icon">
<path id="Vector" d="M3.49167 3.725C2.89167 3.99167 2.5 4.59167 2.5 5.25V9.16667C2.5 13.7917 5.7 18.1167 10 19.1667C14.3 18.1167 17.5 13.7917 17.5 9.16667V5.25C17.5 4.59167 17.1083 3.99167 16.5083 3.725L10.675 1.13333C10.2417 0.941667 9.75 0.941667 9.325 1.13333L3.49167 3.725ZM10 5.83333C10.4583 5.83333 10.8333 6.20833 10.8333 6.66667C10.8333 7.125 10.4583 7.5 10 7.5C9.54167 7.5 9.16667 7.125 9.16667 6.66667C9.16667 6.20833 9.54167 5.83333 10 5.83333ZM10 9.16667C10.4583 9.16667 10.8333 9.54167 10.8333 10V13.3333C10.8333 13.7917 10.4583 14.1667 10 14.1667C9.54167 14.1667 9.16667 13.7917 9.16667 13.3333V10C9.16667 9.54167 9.54167 9.16667 10 9.16667Z" fill="var(--fill-0, #5A4A8A)"/>
</g>
</svg>
