<svg preserveAspectRatio="none" width="100%" height="100%" overflow="visible" style="display: block;" viewBox="0 0 20 20" fill="none" xmlns="http://www.w3.org/2000/svg">
<g id="icon">
<path id="Vector" d="M18.3333 9.25C18.3333 8.85218 18.1737 8.47064 17.8896 8.18934C17.6054 7.90804 17.22 7.75 16.8182 7.75H12.0303L12.7576 4.3225C12.7727 4.2475 12.7803 4.165 12.7803 4.0825C12.7803 3.775 12.6515 3.49 12.447 3.2875L11.6439 2.5L6.65909 7.435C6.37879 7.7125 6.21212 8.0875 6.21212 8.5V16C6.21212 16.3978 6.37175 16.7794 6.6559 17.0607C6.94004 17.342 7.32543 17.5 7.72727 17.5H14.5455C15.1742 17.5 15.7121 17.125 15.9394 16.585L18.2273 11.2975C18.2955 11.125 18.3333 10.945 18.3333 10.75V9.25ZM1.66667 17.5H4.69697V8.5H1.66667V17.5Z" fill="var(--fill-0, #3D6E50)"/>
</g>
</svg>
